<?xml version="1.0" standalone="no"?>
<!DOCTYPE svg PUBLIC "-//W3C//DTD SVG 20010904//EN"
 "http://www.w3.org/TR/2001/REC-SVG-20010904/DTD/svg10.dtd">
<svg version="1.0" xmlns="http://www.w3.org/2000/svg"
 width="500.000000pt" height="500.000000pt" viewBox="0 0 500.000000 500.000000"
 preserveAspectRatio="xMidYMid meet">
<metadata>
Created by potrace 1.14, written by Peter Selinger 2001-2017
</metadata>
<g transform="translate(0.000000,500.000000) scale(0.100000,-0.100000)"
fill="#000000" stroke="none">
<path d="M4101 3571 c-12 -16 -21 -32 -21 -35 0 -3 -14 -28 -30 -55 -17 -27
-42 -78 -56 -113 -14 -35 -33 -81 -43 -103 -34 -73 -110 -259 -150 -365 -22
-58 -51 -133 -66 -168 -14 -34 -28 -78 -30 -98 -3 -19 -13 -51 -24 -72 -36
-72 -133 -452 -134 -531 -1 -36 3 -47 28 -69 16 -14 34 -34 40 -46 6 -11 23
-27 38 -36 25 -14 30 -13 61 5 19 11 76 72 127 135 144 178 216 243 388 350
119 74 193 78 203 11 2 -17 -2 -45 -9 -63 -14 -32 -112 -169 -142 -198 -46
-44 -164 -141 -207 -170 -27 -19 -51 -37 -54 -41 -3 -4 -39 -25 -80 -47 -71
-39 -136 -59 -171 -54 -9 2 -22 -4 -29 -13 -7 -8 -19 -15 -26 -15 -21 0 -17
-19 16 -70 17 -26 47 -56 71 -69 42 -24 51 -24 179 -6 77 12 302 143 411 240
53 47 161 180 194 239 17 29 39 65 49 80 28 40 53 143 51 208 -4 98 -88 230
-164 256 -43 15 -137 11 -216 -9 -140 -36 -242 -97 -358 -215 l-76 -77 40 119
c22 65 42 125 44 132 3 7 5 14 5 17 0 3 9 25 20 50 11 25 20 47 20 50 1 11 46
127 65 170 7 17 23 53 36 80 12 28 42 93 67 145 168 354 167 351 136 394 -11
14 -23 26 -27 26 -5 0 -22 9 -38 21 -16 11 -29 18 -29 14 0 -3 -10 1 -22 9
-34 24 -64 20 -87 -13z"/>
<path d="M1662 3498 c-55 -81 -194 -327 -317 -563 -37 -71 -71 -134 -75 -140
-4 -5 -48 -89 -98 -185 -49 -96 -106 -204 -126 -238 -20 -35 -36 -65 -36 -67
0 -1 -23 -42 -51 -91 -29 -49 -85 -147 -126 -219 -70 -123 -110 -175 -135
-175 -9 0 -5 117 7 179 1 9 6 39 9 66 12 86 21 148 36 235 5 30 12 73 15 95 3
23 8 52 10 65 3 14 8 41 10 60 4 29 38 189 60 290 19 82 71 251 118 380 19 52
34 111 33 131 -2 36 -35 109 -64 142 -23 26 -77 47 -119 47 -37 0 -93 -27 -93
-45 0 -14 -46 -182 -76 -275 -13 -41 -26 -88 -29 -105 -2 -16 -7 -41 -10 -55
-3 -14 -8 -41 -11 -60 -3 -19 -8 -38 -10 -41 -2 -3 -6 -19 -8 -35 -3 -16 -8
-40 -11 -54 -3 -14 -8 -36 -11 -50 -3 -14 -9 -41 -14 -60 -5 -19 -11 -46 -14
-60 -29 -146 -35 -180 -41 -215 -3 -22 -8 -53 -10 -70 -4 -31 -15 -97 -20
-126 -2 -9 -6 -40 -10 -69 -4 -29 -8 -60 -10 -69 -1 -9 -6 -45 -10 -81 -4 -36
-9 -76 -11 -90 -3 -23 -15 -203 -18 -280 -5 -95 29 -156 107 -194 77 -38 164
-37 226 2 49 30 137 127 200 222 35 52 69 102 76 110 13 15 120 195 177 299
67 123 91 167 99 181 41 83 84 174 85 179 0 3 15 36 33 73 43 89 83 122 49 41
-6 -15 -12 -32 -13 -38 -2 -5 -13 -34 -24 -64 -35 -86 -77 -263 -87 -361 -9
-90 -11 -387 -3 -452 8 -65 53 -178 71 -178 4 0 8 -6 8 -13 0 -20 32 -46 70
-57 97 -28 364 164 482 345 139 215 310 526 342 622 9 27 31 72 48 99 27 42
56 101 113 229 26 59 35 82 80 195 25 63 50 124 55 135 14 32 76 193 106 275
15 41 27 86 26 99 -3 31 -72 97 -112 106 -111 24 -161 -40 -276 -355 -51 -140
-91 -239 -149 -365 -15 -33 -41 -89 -57 -125 -52 -113 -89 -191 -158 -330
-276 -555 -312 -620 -349 -620 -59 0 -46 292 28 635 11 50 22 101 25 115 3 14
18 86 35 160 16 74 32 146 34 160 3 14 13 52 23 85 10 33 18 62 19 65 0 3 11
34 23 70 12 36 26 85 32 110 6 25 12 50 13 55 1 6 5 15 8 20 13 21 33 121 31
153 -3 64 -58 144 -114 167 -63 25 -83 20 -116 -27z"/>
<path d="M2989 2776 c-118 -34 -224 -113 -316 -236 -39 -52 -149 -250 -139
-250 3 0 -1 -15 -9 -34 -38 -90 -59 -272 -42 -359 29 -143 103 -232 231 -275
107 -36 224 -25 341 32 71 35 197 155 220 210 15 35 15 39 -5 71 -25 40 -61
65 -93 65 -14 0 -59 -25 -103 -58 -105 -77 -150 -96 -213 -90 -62 6 -98 29
-118 76 -19 45 -23 125 -10 170 12 38 36 47 99 38 190 -27 240 -23 348 27 127
59 263 276 246 394 -18 133 -137 222 -306 229 -52 2 -103 -2 -131 -10z m184
-234 c12 -12 23 -31 24 -42 2 -26 -121 -153 -163 -167 -35 -12 -138 -9 -177 6
-27 10 -27 12 -13 38 20 39 124 147 166 173 46 28 129 24 163 -8z"/>
</g>
</svg>
